Split wide open is a \\\'seedy underbelly of the city\\\' kind of movie (think 1970\\\'s New York as shown in Scorcese\\\'s Taxi Driver) set in Bombay. Themes include urban Indian sexuality (a largely taboo topic), water mafia and paedophilia. This is a dual language film (English & Hindi)

Rahul Bose plays KP, or \\\'Kut Price\\\', a smalltime hustler who works alongside the water supply mafia in the city, and meets Nandita (Laila Rouass), a TV presenter who has just started a reality show called Split Wide Open, that openly discusses sexuality in the city.

This film was controversial on release for the subject matter, and hence is rare to find.
The original torrent I found was a 2 part VCD rip, which I\\\'ve combined into a single AVI.

Apologies in advance for the low resolution (352x288), and lack of subtitles. The film uses both English and Hindi, but I think non Hindi speakers can sort of figure out what\\\'s going on during those sequences.

Split wide open
Download Submitted by Ratio: 0.80rexdude 2 days ago See all torrents by rexdude
Size: 1.27GB, Seeds: 1, Leechers: 27, Peers: 28
Download the torrent or
Movies › Drama › VCD/SVCD › English
Split wide open is a \\\'seedy underbelly of the city\\\' kind of movie (think 1970\\\'s New York as shown in Scorcese\\\'s Taxi Driver) set in Bombay. Themes include urban Indian sexuality (a largely taboo topic), water mafia and paedophilia. This is a dual language film (English & Hindi)

Rahul Bose plays KP, or \\\'Kut Price\\\', a smalltime hustler who works alongside the water supply mafia in the city, and meets Nandita (Laila Rouass), a TV presenter who has just started a reality show called Split Wide Open, that openly discusses sexuality in the city.

This film was controversial on release for the subject matter, and hence is rare to find.
The original torrent I found was a 2 part VCD rip, which I\\\'ve combined into a single AVI.

Apologies in advance for the low resolution (352x288), and lack of subtitles. The film uses both English and Hindi, but I think non Hindi speakers can sort of figure out what\\\'s going on during those sequences.

IMDB page

Wikipedia summary

Technical info
Format : AVI
Format/Info : Audio Video Interleave
File size : 1.27 GiB
Duration : 1h 42mn
Overall bit rate : 1 768 Kbps
Movie name : Split wide open
Director : Dev Benegal
Subject : Drama
Writing application : VirtualDubMod 1.5.10.2 (build 2540/release)
Writing library : VirtualDub-MPEG2 build 24586/release
Copyright : 1999

Video
ID : 0
Format : MPEG-4 Visual
Format profile : Advanced Simple@L5
Format settings, BVOP : 2
Format settings, QPel : No
Format settings, GMC : No warppoints
Format settings, Matrix : Default (H.263)
Muxing mode : Packed bitstream
Codec ID : XVID
Codec ID/Hint : XviD
Duration : 1h 42mn
Bit rate : 347 Kbps
Width : 352 pixels
Height : 288 pixels
Display aspect ratio : 1.222
Frame rate : 25.000 fps
Standard : PAL
Color space : YUV
Chroma subsampling : 4:2:0
Bit depth : 8 bits
Scan type : Progressive
Compression mode : Lossy
Bits/(Pixel*Frame) : 0.137
Stream size : 256 MiB (20%)
Writing library : XviD 58

Audio
ID : 1
Format : PCM
Format settings, Endianness : Little
Format settings, Sign : Signed
Codec ID : 1
Codec ID/Hint : Microsoft
Duration : 1h 42mn
Bit rate mode : Constant
Bit rate : 1 411.2 Kbps
Channel(s) : 2 channels
Sampling rate : 44.1 KHz
Bit depth : 16 bits
Stream size : 1.01 GiB (80%)
Interleave, duration : 40 ms (1.00 video frame)
Interleave, preload duration : 500 ms 